<?xml version="1.0" standalone="no"?>
<!DOCTYPE svg PUBLIC "-//W3C//DTD SVG 20010904//EN"
 "http://www.w3.org/TR/2001/REC-SVG-20010904/DTD/svg10.dtd">
<svg version="1.0" xmlns="http://www.w3.org/2000/svg"
 width="260.000000pt" height="260.000000pt" viewBox="0 0 260.000000 260.000000"
 preserveAspectRatio="xMidYMid meet">
<metadata>
Created by potrace 1.11, written by Peter Selinger 2001-2013
</metadata>
<g transform="translate(0.000000,260.000000) scale(0.100000,-0.100000)"
fill="#000000" stroke="none">
<path d="M1915 2531 c-3 -5 -2 -12 3 -15 5 -3 9 1 9 9 0 17 -3 19 -12 6z"/>
<path d="M1263 2474 c3 -4 -2 -23 -12 -43 -31 -60 -52 -151 -54 -238 l-1 -42
-31 24 c-97 80 -233 114 -367 92 -36 -6 -46 -12 -41 -23 3 -8 8 -12 11 -10 3
3 11 1 19 -5 7 -6 13 -9 13 -5 0 4 15 -1 33 -11 17 -9 34 -18 37 -18 17 -4 60
-30 60 -36 0 -4 8 -10 18 -14 9 -3 31 -18 49 -33 l31 -27 -81 0 c-89 0 -121
-5 -182 -28 -79 -30 -175 -89 -175 -108 0 -5 28 -9 63 -8 145 4 279 -50 370
-151 32 -36 35 -43 22 -56 -15 -16 -11 -37 16 -71 19 -26 28 -20 52 39 11 26
21 36 34 33 21 -3 20 -12 -7 -77 -11 -26 -20 -55 -20 -65 1 -20 91 -123 108
-123 9 0 72 119 72 136 0 2 -23 29 -50 59 -28 31 -48 60 -45 65 12 19 35 10
69 -27 32 -35 36 -37 51 -22 9 9 17 25 18 37 1 16 8 22 24 22 27 0 27 -2 8
-55 -8 -22 -14 -47 -15 -57 0 -18 117 -111 131 -103 14 9 60 167 57 195 -2 19
8 35 35 61 54 50 65 59 76 59 5 0 11 4 13 9 2 5 26 20 53 33 84 42 203 71 290
69 72 -1 75 15 9 45 -55 25 -84 35 -159 52 -64 14 -208 5 -264 -16 -30 -12
-57 -19 -60 -17 -4 4 70 78 112 112 26 21 121 70 170 88 60 22 48 32 -49 41
-119 11 -249 -30 -333 -106 -19 -17 -36 -29 -37 -27 -2 2 -5 28 -8 58 -2 30
-6 61 -9 69 -3 8 -13 39 -22 69 -10 29 -23 63 -29 75 -37 66 -52 86 -65 86 -8
0 -12 -3 -8 -6z"/>
<path d="M1563 1594 c-32 -101 -33 -118 -5 -128 9 -3 37 -17 61 -31 36 -22 46
-24 56 -13 20 22 44 115 37 141 -8 29 -90 127 -106 127 -7 0 -26 -43 -43 -96z"/>
<path d="M944 1642 c-16 -20 -33 -42 -37 -48 -7 -12 33 -96 61 -127 15 -17 17
-15 44 29 49 78 50 85 16 137 -17 26 -35 47 -42 47 -6 0 -25 -17 -42 -38z"/>
<path d="M1300 1499 l-35 -72 40 -34 c22 -20 49 -42 61 -49 22 -15 54 -10 55
10 0 6 11 33 24 60 26 57 25 66 -13 88 -15 9 -39 28 -54 42 -15 14 -31 26 -35
26 -5 0 -24 -32 -43 -71z"/>
<path d="M1083 1533 c-7 -2 -13 -10 -13 -16 0 -7 -13 -32 -29 -56 -17 -25 -27
-51 -23 -60 8 -23 93 -111 106 -111 6 0 18 12 27 28 9 15 26 43 37 63 l22 35
-58 61 c-31 34 -63 59 -69 56z"/>
<path d="M852 1501 c-11 -18 -25 -52 -32 -76 -10 -36 -9 -47 6 -76 32 -63 43
-63 88 -1 l39 55 -23 43 c-13 23 -31 53 -41 65 l-17 23 -20 -33z"/>
<path d="M1730 1437 c-12 -40 -11 -42 15 -65 24 -20 30 -21 42 -10 11 12 11
21 -4 61 -23 61 -37 65 -53 14z"/>
<path d="M1503 1428 c-4 -7 -20 -38 -35 -68 l-27 -55 32 -27 c17 -16 37 -28
43 -28 7 0 14 -4 16 -9 2 -4 13 -11 25 -15 18 -6 26 0 46 31 19 30 47 95 47
109 0 3 -127 74 -134 74 -2 0 -8 -6 -13 -12z"/>
<path d="M1219 1349 c-7 -18 -23 -44 -36 -60 -16 -19 -21 -33 -16 -43 8 -14
107 -96 116 -96 6 0 75 102 83 123 3 9 -16 30 -56 61 -34 25 -65 46 -70 46 -4
0 -13 -14 -21 -31z"/>
<path d="M938 1310 c-43 -56 -46 -72 -20 -99 9 -10 26 -30 37 -43 34 -40 42
-40 79 -1 65 70 66 75 10 135 -27 29 -53 54 -59 55 -5 1 -27 -20 -47 -47z"/>
<path d="M1695 1332 c-11 -8 -65 -117 -65 -131 0 -13 127 -62 143 -55 20 7 47
70 47 109 0 33 -3 37 -56 60 -31 14 -57 25 -58 25 0 0 -5 -4 -11 -8z"/>
<path d="M787 1293 c-11 -10 -8 -83 3 -83 5 0 17 11 25 24 14 20 14 28 3 45
-14 22 -20 25 -31 14z"/>
<path d="M1368 1191 c-21 -33 -38 -63 -38 -68 0 -10 97 -69 122 -75 20 -4 102
107 94 128 -3 7 -23 22 -45 33 -22 12 -42 25 -46 31 -3 5 -16 10 -28 10 -16 0
-33 -17 -59 -59z"/>
<path d="M812 1166 c-47 -51 -47 -76 2 -132 l32 -37 46 34 c67 50 72 61 42 96
-14 15 -35 40 -47 55 -12 15 -25 28 -28 28 -4 0 -25 -20 -47 -44z"/>
<path d="M1085 1163 c-61 -70 -60 -69 -20 -108 19 -19 38 -35 41 -35 3 0 13
-7 22 -16 15 -15 20 -12 69 41 29 31 53 60 53 64 0 9 -70 71 -80 71 -4 0 -13
7 -20 15 -18 21 -20 20 -65 -32z"/>
<path d="M1556 1091 c-21 -33 -39 -63 -40 -67 0 -4 14 -15 32 -25 17 -10 32
-16 32 -14 0 3 13 -1 30 -10 16 -8 35 -15 43 -15 8 0 33 28 55 62 32 49 39 65
29 74 -14 13 -114 54 -131 54 -7 0 -29 -27 -50 -59z"/>
<path d="M1236 1024 c-46 -52 -48 -56 -32 -73 10 -10 37 -29 62 -42 24 -13 44
-28 44 -33 0 -5 27 20 60 55 33 35 60 66 60 69 0 9 -122 80 -135 79 -5 0 -32
-25 -59 -55z"/>
<path d="M1781 1051 c-12 -16 -21 -34 -21 -40 0 -6 -4 -11 -8 -11 -4 0 -16
-14 -25 -30 -18 -30 -18 -30 8 -40 37 -14 43 -13 55 11 20 36 33 126 20 134
-5 3 -18 -8 -29 -24z"/>
<path d="M925 1005 l-49 -45 39 -41 c56 -57 67 -62 96 -39 13 10 41 32 62 49
41 32 43 26 -26 89 -20 17 -44 32 -54 32 -10 -1 -40 -21 -68 -45z"/>
<path d="M1425 925 c-28 -30 -50 -60 -50 -67 0 -7 31 -26 68 -42 l69 -30 54
58 c30 32 54 62 54 66 0 8 -85 51 -127 64 -14 4 -32 -8 -68 -49z"/>
<path d="M824 907 c22 -89 50 -114 92 -82 18 14 17 16 -30 60 -54 50 -71 56
-62 22z"/>
<path d="M1130 920 c0 -5 -12 -16 -27 -25 -16 -8 -41 -26 -57 -39 l-29 -24 24
-21 c73 -63 83 -69 100 -62 29 10 129 85 129 96 0 11 -112 85 -129 85 -6 0
-11 -4 -11 -10z"/>
<path d="M1672 891 c-17 -12 -102 -112 -102 -121 0 -8 54 -28 102 -36 11 -3
27 13 46 44 38 62 46 87 30 99 -17 13 -64 22 -76 14z"/>
<path d="M1253 772 c-34 -26 -61 -51 -59 -57 1 -5 28 -24 60 -41 56 -30 60
-31 89 -16 17 8 40 23 51 33 12 10 31 26 43 36 13 10 20 23 15 28 -8 11 -118
66 -130 64 -4 0 -35 -22 -69 -47z"/>
<path d="M960 798 c0 -6 -3 -9 -6 -5 -4 3 -13 0 -20 -8 -8 -7 -19 -15 -26 -17
-13 -5 3 -35 40 -79 20 -23 31 -24 82 -2 46 20 51 43 15 63 -14 7 -25 17 -25
22 0 4 -7 8 -15 8 -8 0 -15 4 -15 9 0 5 -7 11 -15 15 -8 3 -15 0 -15 -6z"/>
<path d="M1469 693 c-25 -21 -56 -45 -69 -54 l-24 -16 26 -17 c14 -9 37 -19
49 -21 13 -3 34 -7 47 -9 12 -3 22 -1 22 4 0 5 8 11 18 14 18 6 96 74 103 90
4 9 -81 44 -111 45 -9 1 -36 -16 -61 -36z"/>
<path d="M1076 661 c-57 -26 -58 -27 -40 -46 10 -10 37 -26 60 -37 41 -18 43
-18 98 3 31 12 56 26 56 30 0 5 -17 19 -37 32 -76 48 -74 47 -137 18z"/>
<path d="M1273 567 c-70 -34 -60 -41 56 -39 76 1 96 14 55 35 -50 25 -68 26
-111 4z"/>
<path d="M1023 508 c-9 -14 -15 -239 -7 -275 6 -33 28 -30 172 27 70 27 131
50 137 50 5 0 68 -23 139 -50 71 -28 139 -50 150 -48 20 3 21 10 23 144 2 115
0 144 -12 154 -12 10 -40 2 -151 -41 -75 -29 -144 -52 -153 -52 -9 1 -74 25
-144 52 -141 56 -142 56 -154 39z"/>
</g>
</svg>
